<svg width="24" height="26" viewBox="0 0 24 26" fill="none" xmlns="http://www.w3.org/2000/svg">
<path d="M19.8777 3.56354C19.1168 3.12289 18.274 2.94067 17.1205 2.95985L16.6752 2.96944C16.5099 2.96944 16.3293 2.97849 16.1964 2.9023C16.1135 2.85435 16.1135 2.77762 16.1125 2.66306L16.1071 1.76258C16.1055 1.49457 15.9557 1.2937 15.6247 1.10189L14.2017 0.278133C13.8706 0.0863162 13.5242 0 13.0625 0H10.3573C9.86258 0 9.53314 0.0959099 9.20476 0.287727L1.08396 5.01975C0.869821 5.14443 0.870886 5.27817 1.08609 5.40285L12.0066 11.7254C12.2218 11.85 12.4524 11.85 12.6666 11.7254L19.7188 7.61568C21.9218 6.3321 22.0781 4.83752 19.8772 3.56354H19.8777ZM7.345 6.69602L5.04528 5.36449C4.83007 5.23981 4.82954 5.10553 5.04315 4.98139L11.3228 1.32194C11.5364 1.19726 11.767 1.1978 11.9822 1.32194L14.2819 2.65347C14.4971 2.77816 14.4982 2.91189 14.2846 3.03657L8.00494 6.69602C7.79134 6.8207 7.5602 6.8207 7.345 6.69602ZM17.866 6.42748L12.7208 9.42569C12.5072 9.55037 12.276 9.55037 12.0608 9.42569L9.72764 8.07498C9.51244 7.95029 9.5119 7.81602 9.72551 7.69187L14.8707 4.69366C15.8075 4.14751 16.8962 4.16723 17.773 4.67501L17.8059 4.69419C18.7826 5.25952 18.8028 5.88186 17.8654 6.42801L17.866 6.42748Z" fill="white"/>
<path d="M22.3182 13.67L23.6663 12.8846C23.8799 12.76 23.9957 12.5596 23.9963 12.3118L24 10.9963C24.0011 10.6148 23.9028 10.4059 23.6573 10.2631L21.7401 9.15326C21.4941 9.01153 21.2645 9.04989 20.9356 9.24117L16.1518 12.0289C15.8229 12.2207 15.5763 12.4786 15.3452 12.8798L13.3988 16.2601C13.1682 16.6613 13.0683 17.0044 13.0672 17.386L13.055 21.6379C13.0438 25.6224 15.0944 26.0268 17.807 24.4459L19.4011 23.5166C22.196 21.8878 23.9766 19.0612 23.9851 15.9537V15.9345C23.9857 15.6862 23.8709 15.6202 23.6573 15.7448L22.3092 16.5302C22.0951 16.6549 21.9798 16.8547 21.9792 17.103V17.2746C21.9745 18.8565 21.2646 20.1843 19.6375 21.1322L17.5663 22.3391C15.9058 23.3067 15.0545 22.6231 15.0593 20.8307L15.0752 15.2824C15.0758 15.0346 15.1916 14.8337 15.4052 14.7096L21.6684 11.0597C21.882 10.935 21.9968 11.0016 21.9962 11.2494L21.9898 13.4803C21.9893 13.7281 22.1036 13.7947 22.3177 13.67H22.3182Z" fill="white"/>
<path d="M8.77224 12.9171C8.54163 12.5164 8.2935 12.2585 7.96246 12.0667L0.3677 7.66984C0.152498 7.54516 0.0361303 7.61123 0.0355989 7.859L1.8283e-06 20.4427C-0.000529533 20.6905 0.114774 20.8914 0.329975 21.0155L6.20419 24.4166C9.33125 26.2271 11.0077 25.2691 11.0183 21.665L11.0305 17.3944C11.0316 17.0129 10.9328 16.6693 10.7022 16.2686L8.77224 12.9171ZM8.99861 20.9164C8.9933 22.7659 8.12984 23.2779 6.50866 22.3396L2.35553 19.935C2.14033 19.8103 2.02503 19.6099 2.02556 19.3622L2.04842 11.2787C2.04895 11.0304 2.16532 10.9643 2.38052 11.089L8.68457 14.7388C8.89977 14.8635 9.01508 15.0633 9.01454 15.3116L8.99861 20.917V20.9164Z" fill="white"/>
</svg>
