<svg width="48" height="49" viewBox="0 0 48 49" fill="none" xmlns="http://www.w3.org/2000/svg">
<path d="M4.34375 10.2718C4.12576 10.4898 4 10.7916 4 11.1018V15.3189H7.52966V8.72913C7.52966 8.46923 7.73926 8.25963 7.99916 8.25963H44V4.72998H10.3718C10.0616 4.72998 9.7598 4.85574 9.54182 5.07372L4.34375 10.2718Z" fill="white"/>
<path d="M40.0008 41.2003H4V44.73H37.6282C37.9384 44.73 38.2402 44.6042 38.4582 44.3862L43.6479 39.1966C43.8659 38.9786 43.9916 38.6768 43.9916 38.3666V34.1494H40.462V40.7392C40.462 40.9991 40.2524 41.2087 39.9925 41.2087L40.0008 41.2003Z" fill="white"/>
<path d="M14.5896 22.3782V29.4375C14.5896 30.083 15.1178 30.6112 15.7633 30.6112H21.1542C21.4644 30.6112 21.7663 30.4855 21.9842 30.2675L33.4032 18.8485H28.6998L18.9157 28.6326C18.6223 28.9261 18.1108 28.7165 18.1108 28.2973V22.3782H14.5812H14.5896Z" fill="white"/>
</svg>
