<svg width="48" height="48" viewBox="0 0 48 48" fill="none" xmlns="http://www.w3.org/2000/svg">
<path d="M4.34375 9.5418C4.12576 9.75978 4 10.0616 4 10.3718V14.5889H7.52966V7.99915C7.52966 7.73925 7.73926 7.52965 7.99916 7.52965H44V4H10.3718C10.0616 4 9.7598 4.12576 9.54182 4.34374L4.34375 9.5418Z" fill="#004BF5"/>
<path d="M40.0008 40.4704H4V44H37.6282C37.9384 44 38.2402 43.8742 38.4582 43.6563L43.6479 38.4666C43.8659 38.2486 43.9916 37.9468 43.9916 37.6366V33.4194H40.462V40.0092C40.462 40.2691 40.2524 40.4787 39.9925 40.4787L40.0008 40.4704Z" fill="#004BF5"/>
<path d="M14.5896 21.6482V28.7075C14.5896 29.3531 15.1178 29.8813 15.7633 29.8813H21.1542C21.4644 29.8813 21.7663 29.7555 21.9842 29.5375L33.4032 18.1186H28.6998L18.9157 27.9026C18.6223 28.1961 18.1108 27.9865 18.1108 27.5673V21.6482H14.5812H14.5896Z" fill="#004BF5"/>
</svg>
