<svg width="48" height="49" viewBox="0 0 48 49" fill="none" xmlns="http://www.w3.org/2000/svg">
<path d="M37.6305 4.72998H29.8818V8.2596H40.0001C40.2589 8.2596 40.4707 8.47138 40.4707 8.73022V18.8485H44.0003V11.0998C44.0003 10.7868 43.8756 10.488 43.6568 10.2668L38.4635 5.07353C38.2423 4.85234 37.9435 4.72998 37.6305 4.72998Z" fill="white"/>
<path d="M7.52962 30.6139H4V38.3626C4 38.6756 4.1247 38.9744 4.34354 39.1956L9.53681 44.3889C9.758 44.6101 10.0568 44.7324 10.3698 44.7324H18.1185V41.2028H8.00024C7.7414 41.2028 7.52962 40.991 7.52962 40.7322V30.6139Z" fill="white"/>
<path d="M29.8842 18.8485V11.7892H11.0596V30.6139H18.1188V37.6731H36.9435V18.8485H29.8842ZM14.5892 27.0843V15.3189H26.3546V27.0843H14.5892ZM33.4138 34.1435H21.6484V30.6139H29.8842V22.3781H33.4138V34.1435Z" fill="white"/>
</svg>