<svg width="48" height="49" viewBox="0 0 48 49" fill="none" xmlns="http://www.w3.org/2000/svg">
<g clip-path="url(#clip0_1417_1797)">
<path d="M19 2.27002C14.0531 2.27002 10 6.32314 10 11.27C10 14.1553 11.4669 16.6197 13.5977 18.27C11.4669 19.9204 10 22.3847 10 25.27C10 28.1553 11.4669 30.6197 13.5977 32.27C11.4669 33.9204 10 36.3847 10 39.27C10 44.2169 14.0531 48.27 19 48.27C23.9469 48.27 28 44.2169 28 39.27V32.27V20.27H33C37.9469 20.27 42 16.2169 42 11.27C42 6.32314 37.9469 2.27002 33 2.27002H26H19ZM19 6.27002H24V16.27H19C16.2149 16.27 14 14.0551 14 11.27C14 8.4849 16.2149 6.27002 19 6.27002ZM28 6.27002H33C35.7851 6.27002 38 8.4849 38 11.27C38 14.0551 35.7851 16.27 33 16.27H28V6.27002ZM19 20.27H24V30.27H19C16.2149 30.27 14 28.0551 14 25.27C14 22.4849 16.2149 20.27 19 20.27ZM34 20.27C32.4087 20.27 30.8826 20.9022 29.7574 22.0274C28.6321 23.1526 28 24.6787 28 26.27C28 27.8613 28.6321 29.3874 29.7574 30.5127C30.8826 31.6379 32.4087 32.27 34 32.27C35.5913 32.27 37.1174 31.6379 38.2426 30.5127C39.3679 29.3874 40 27.8613 40 26.27C40 24.6787 39.3679 23.1526 38.2426 22.0274C37.1174 20.9022 35.5913 20.27 34 20.27ZM19 34.27H24V39.27C24 42.0551 21.7851 44.27 19 44.27C16.2149 44.27 14 42.0551 14 39.27C14 36.4849 16.2149 34.27 19 34.27Z" fill="#004BF5"/>
</g>
<defs>
<clipPath id="clip0_1417_1797">
<rect width="48" height="48" fill="white" transform="translate(0 0.27002)"/>
</clipPath>
</defs>
</svg>
