<svg width="48" height="48" viewBox="0 0 48 48" fill="none" xmlns="http://www.w3.org/2000/svg">
<path d="M27.0015 26.9998H21.0022C18.2404 26.9998 16.0021 29.238 16.0021 31.9999V42H19.0024V31.9999C19.0024 30.8959 19.8982 30.0001 21.0022 30.0001H27.0015C28.1055 30.0001 29.0013 30.8959 29.0013 31.9999V42H32.0016V31.9999C32.0016 29.238 29.7634 26.9998 27.0015 26.9998Z" fill="#004BF5"/>
<path d="M38.9999 20.9992H32.0001V23.9995H38.9999C40.1039 23.9995 40.9997 24.8953 40.9997 25.9993V35.9994H44V25.9993C44 23.2374 41.7618 20.9992 38.9999 20.9992Z" fill="#004BF5"/>
<path d="M15.9999 20.9992H9.00008C6.23824 20.9992 4 23.2374 4 25.9993V35.9994H7.0003V25.9993C7.0003 24.8953 7.8961 23.9995 9.00008 23.9995H15.9999V20.9992Z" fill="#004BF5"/>
<path d="M24.0003 13.9993C21.2384 13.9993 19.0002 16.2376 19.0002 18.9994C19.0002 21.7612 21.2384 23.9995 24.0003 23.9995C26.7621 23.9995 29.0004 21.7612 29.0004 18.9994C29.0004 16.2376 26.7621 13.9993 24.0003 13.9993ZM24.0003 20.9992C22.8963 20.9992 22.0005 20.1034 22.0005 18.9994C22.0005 17.8954 22.8963 16.9996 24.0003 16.9996C25.1043 16.9996 26.0001 17.8954 26.0001 18.9994C26.0001 20.1034 25.1043 20.9992 24.0003 20.9992Z" fill="#004BF5"/>
<path d="M36.4989 8C34.0134 8 31.9984 10.0149 31.9984 12.5004C31.9984 14.986 34.0134 17.0009 36.4989 17.0009C38.9844 17.0009 40.9993 14.986 40.9993 12.5004C40.9993 10.0149 38.9844 8 36.4989 8ZM36.4989 13.9993C35.67 13.9993 34.9987 13.3281 34.9987 12.4992C34.9987 11.6703 35.67 10.999 36.4989 10.999C37.3278 10.999 37.999 11.6703 37.999 12.4992C37.999 13.3281 37.3278 13.9993 36.4989 13.9993Z" fill="#004BF5"/>
<path d="M11.5002 8C9.01464 8 6.99972 10.0149 6.99972 12.5004C6.99972 14.986 9.01464 17.0009 11.5002 17.0009C13.9857 17.0009 16.0006 14.986 16.0006 12.5004C16.0006 10.0149 13.9857 8 11.5002 8ZM11.5002 13.9993C10.6712 13.9993 10 13.3281 10 12.4992C10 11.6703 10.6712 10.999 11.5002 10.999C12.3291 10.999 13.0003 11.6703 13.0003 12.4992C13.0003 13.3281 12.3291 13.9993 11.5002 13.9993Z" fill="#004BF5"/>
</svg>
