<svg width="48" height="49" viewBox="0 0 48 49" fill="none" xmlns="http://www.w3.org/2000/svg">
<path d="M31.5377 22.5503C33.4788 22.5503 35.1376 21.8728 36.5139 20.5178C37.8903 19.1629 38.5785 17.5341 38.5785 15.6314C38.5785 13.7287 37.8874 12.1028 36.5051 10.7537C35.1227 9.40454 33.461 8.72998 31.5199 8.72998C29.5787 8.72998 27.92 9.40747 26.5436 10.7625C25.1672 12.1174 24.479 13.7462 24.479 15.6489C24.479 17.5516 25.1702 19.1775 26.5525 20.5266C27.9348 21.8757 29.5966 22.5503 31.5377 22.5503Z" fill="white"/>
<path d="M38.1821 27.1821H26.3796C23.7583 27.1821 21.6339 29.2458 21.6339 31.7922V42.73H43.2574C42.4268 42.73 45.2848 42.73 43.2574 42.73C38.9767 42.73 44.3052 42.73 43.2574 42.73V31.73C43.2574 29.1835 40.8034 27.1821 38.1821 27.1821Z" fill="white"/>
<path d="M18.296 28.8998H8.20478C5.88223 28.8998 4 30.6142 4 32.7297V42.73H6.88861L6.94431 33.3275C6.94431 32.4819 8.07847 31.7922 8.81435 31.7922L17.4802 31.73C18.4086 31.73 19.4059 32.4819 19.4059 33.3275V42.73H22.5008V32.7297C22.5008 30.6142 20.6186 28.8998 18.296 28.8998Z" fill="white"/>
<path d="M13.2509 26.2189C16.7342 26.2189 19.5576 23.6472 19.5576 20.4744C19.5576 17.3016 17.4802 13.73 13.2509 13.73C9.02171 13.73 6.94431 17.3016 6.94431 20.4744C6.94431 23.6472 9.76765 26.2189 13.2509 26.2189ZM13.2509 16.73C15.3411 16.73 16.7193 18.246 16.7193 20.4744C16.7193 21.73 15.3411 23.586 13.2509 23.586C11.5574 23.586 9.7815 22.3783 9.7815 20.4744C9.7815 18.051 11.1608 16.73 13.2509 16.73Z" fill="white"/>
</svg>
