<svg width="48" height="49" viewBox="0 0 48 49" fill="none" xmlns="http://www.w3.org/2000/svg">
<path d="M27.5548 4.72998C18.4726 4.72998 11.1096 12.093 11.1096 21.1752C11.1096 25.0864 12.4775 28.6775 14.7585 31.4994L4 42.2579L6.47212 44.73L17.2306 33.9715C20.0539 36.2524 23.6436 37.6204 27.5548 37.6204C36.637 37.6204 44 30.2574 44 21.1752C44 12.093 36.637 4.72998 27.5548 4.72998ZM27.5548 34.096C20.4185 34.096 14.634 28.3114 14.634 21.1752C14.634 14.039 20.4185 8.25438 27.5548 8.25438C34.691 8.25438 40.4756 14.039 40.4756 21.1752C40.4756 28.3114 34.691 34.096 27.5548 34.096Z" fill="white"/>
</svg>
