<svg width="48" height="49" viewBox="0 0 48 49" fill="none" xmlns="http://www.w3.org/2000/svg">
<path d="M40.0001 42.03L41.4001 40.63L37.6501 36.88V31.28H35.6501V37.68L40.0001 42.03ZM6.00034 42.73L6.00024 6.73021L42.0001 6.7301V26.18C41.5334 25.9133 41.0418 25.6966 40.5251 25.53C40.0084 25.3633 39.5001 25.23 39.0001 25.13V9.72998H9.0001V39.73H24.4501C24.5834 40.2633 24.7338 40.7829 24.9012 41.2886C25.0686 41.7944 25.2683 42.2748 25.5001 42.73H6.00034ZM9.0001 37.38V39.73V9.72998V25.13V24.93V37.38ZM14.0001 34.73H24.5501C24.6834 34.1966 24.8334 33.68 25.0001 33.18C25.1668 32.68 25.3834 32.1966 25.6501 31.73H14.0001V34.73ZM14.0001 26.23H31.2001C31.6668 25.9966 32.1168 25.805 32.5501 25.655C32.9834 25.505 33.4668 25.3633 34.0001 25.23V23.23H14.0001V26.23ZM14.0001 17.73H34.0001V14.73H14.0001V17.73ZM36.6251 46.68C34.0418 46.68 31.8334 45.755 30.0001 43.905C28.1668 42.055 27.2501 39.8633 27.2501 37.33C27.2501 34.7155 28.1666 32.4868 29.9996 30.6441C31.8326 28.8013 34.0494 27.88 36.6501 27.88C39.2168 27.88 41.4251 28.8013 43.2751 30.6441C45.1251 32.4868 46.0501 34.7155 46.0501 37.33C46.0501 39.8633 45.1251 42.055 43.2751 43.905C41.4251 45.755 39.2084 46.68 36.6251 46.68Z" fill="white"/>
</svg>
