<svg width="24" height="24" viewBox="0 0 24 24" fill="none" xmlns="http://www.w3.org/2000/svg">
<path d="M19.0709 4.92871C17.1182 2.97599 14.5591 2 12 2C9.4409 2 6.88181 2.97599 4.92908 4.92871C1.02364 8.83416 1.02364 15.1658 4.92908 19.0713C6.88181 21.024 9.4409 22 12 22C14.5591 22 17.1182 21.024 19.0709 19.0713C22.9764 15.1658 22.9764 8.83416 19.0709 4.92871ZM20.1976 11.1246H16.687C16.5942 8.86458 16.1415 6.65877 15.3273 4.92871C15.2256 4.71273 15.1195 4.51011 15.0111 4.31788C16.0561 4.72683 17.0158 5.34954 17.8329 6.1667C19.2186 7.55238 20.0061 9.31287 20.1976 11.1246ZM12 20.2492C11.5829 20.2492 10.8822 19.6547 10.2566 18.3254C9.55223 16.8284 9.15516 14.8801 9.06609 12.8754H14.9339C14.8448 14.8808 14.4478 16.8284 13.7434 18.3254C13.1177 19.6539 12.4171 20.2492 12 20.2492ZM9.06609 11.1246C9.15516 9.11916 9.55223 7.17163 10.2566 5.67462C10.8822 4.34609 11.5829 3.75084 12 3.75084C12.4171 3.75084 13.1177 4.34534 13.7434 5.67462C14.4478 7.17163 14.8448 9.1199 14.9339 11.1246H9.06609ZM6.16707 6.1667C6.98423 5.34954 7.94389 4.72683 8.9889 4.31788C8.88054 4.51011 8.77441 4.71273 8.67273 4.92871C7.85854 6.65877 7.4058 8.86458 7.31302 11.1246H3.80243C3.99391 9.31287 4.78139 7.55238 6.16707 6.1667ZM3.80243 12.8754H7.31302C7.4058 15.1354 7.85854 17.3412 8.67273 19.0713C8.77441 19.2873 8.88054 19.4899 8.9889 19.6821C7.94389 19.2732 6.98497 18.6505 6.16707 17.8333C4.78139 16.4476 3.99391 14.6871 3.80243 12.8754ZM17.8337 17.8333C17.0165 18.6505 16.0569 19.2732 15.0118 19.6821C15.1202 19.4899 15.2263 19.2873 15.328 19.0713C16.1422 17.3412 16.5949 15.1354 16.6877 12.8754H20.1983C20.0068 14.6871 19.2194 16.4476 17.8337 17.8333Z" fill="white"/>
</svg>
