<svg width="100" height="32" viewBox="0 0 100 32" fill="none" xmlns="http://www.w3.org/2000/svg">
<path d="M0 0.911091C0 0.318932 0.317774 0 0.906657 0H21.7231C22.6297 0 23.3109 0.27321 23.9453 0.911091L29.2508 6.23606C29.8863 6.87283 30.1586 7.55643 30.1586 8.46642V18.6625C30.1586 27.265 25.5775 31.8628 17.0065 31.8628H0.906657C0.316663 31.8628 0 31.5439 0 30.9517V0.909975V0.911091ZM6.43993 26.4921H17.8231C22.2675 26.4921 24.6253 24.0789 24.6253 19.6639V6.28179C24.6253 5.69074 24.3075 5.3718 23.7186 5.3718H6.43993C5.85105 5.3718 5.53327 5.69074 5.53327 6.28179V25.5811C5.53327 26.1721 5.85105 26.4921 6.43993 26.4921ZM35.3285 0.911091C35.3285 0.318932 35.6463 0 36.2352 0H58.6382C59.546 0 60.226 0.227487 60.906 0.911091L64.6248 4.6436C65.2593 5.28036 65.5315 5.96397 65.5315 6.87395V10.7893C65.5315 11.6993 65.2593 12.3818 64.6248 13.0197L62.4926 15.1586C62.2204 15.4318 62.0393 15.6136 62.0393 15.8411C62.0393 16.2057 62.3115 16.4321 62.5382 16.6607L63.1737 17.2518C64.8059 18.7997 65.5315 20.3921 65.5315 22.4864C65.5315 28.5396 61.7671 31.8628 55.6905 31.8628H36.2352C35.6452 31.8628 35.3285 31.5439 35.3285 30.9517V0.909975V0.911091ZM41.7684 13.5193H59.0927C59.6827 13.5193 59.9993 13.2003 59.9993 12.6093V6.28179C59.9993 5.69074 59.6816 5.3718 59.0927 5.3718H41.7684C41.1784 5.3718 40.8607 5.69074 40.8607 6.28179V12.6093C40.8607 13.2003 41.1784 13.5193 41.7684 13.5193ZM41.7684 26.4921H55.9627C58.5482 26.4921 59.9993 24.99 59.9993 22.3047V22.2132C59.9993 19.8011 58.5482 18.2532 55.9627 18.2532H41.7684C41.1784 18.2532 40.8607 18.5722 40.8607 19.1643V25.5822C40.8607 26.1732 41.1784 26.4933 41.7684 26.4933V26.4921ZM69.8403 18.6625V8.51214C69.8403 7.60104 70.1126 6.91855 70.747 6.28179L76.098 0.911091C76.7336 0.274325 77.4136 0 78.3202 0H91.5179C92.4245 0 93.0601 0.227487 93.7401 0.911091L99.0467 6.23606C99.7267 6.91855 99.9989 7.55643 99.9989 8.46642V11.6068C99.9989 12.1989 99.6811 12.5179 99.0922 12.5179H95.3734C94.7834 12.5179 94.4667 12.1989 94.4667 11.6068V6.28179C94.4667 5.69074 94.149 5.3718 93.5601 5.3718H76.2814C75.6914 5.3718 75.3747 5.69074 75.3747 6.28179V19.5279C75.3747 23.8068 77.7325 26.6282 82.3135 26.6282H88.0279C92.5179 26.6282 94.4678 24.4436 94.4678 20.6653V20.2561C94.4678 19.6639 94.7856 19.345 95.3745 19.345H99.0933C99.6822 19.345 100 19.6639 100 20.2561V20.3018C100 27.7211 95.1023 32 87.3924 32H82.9935C75.5103 32 69.8414 28.1772 69.8414 18.6636L69.8403 18.6625Z" fill="white"/>
</svg>
