<svg width="16" height="23" viewBox="0 0 16 23" fill="none" xmlns="http://www.w3.org/2000/svg">
<path d="M4.5 0C2.02656 0 0 2.02656 0 4.5C0 5.94265 0.733444 7.17483 1.79883 8C0.733444 8.82517 0 10.0574 0 11.5C0 12.9426 0.733444 14.1748 1.79883 15C0.733444 15.8252 0 17.0574 0 18.5C0 20.9734 2.02656 23 4.5 23C6.97344 23 9 20.9734 9 18.5V15V9H11.5C13.9734 9 16 6.97344 16 4.5C16 2.02656 13.9734 0 11.5 0H8H4.5ZM4.5 2H7V7H4.5C3.10744 7 2 5.89256 2 4.5C2 3.10744 3.10744 2 4.5 2ZM9 2H11.5C12.8926 2 14 3.10744 14 4.5C14 5.89256 12.8926 7 11.5 7H9V2ZM4.5 9H7V14H4.5C3.10744 14 2 12.8926 2 11.5C2 10.1074 3.10744 9 4.5 9ZM12 9C11.2044 9 10.4413 9.31607 9.87868 9.87868C9.31607 10.4413 9 11.2044 9 12C9 12.7956 9.31607 13.5587 9.87868 14.1213C10.4413 14.6839 11.2044 15 12 15C12.7956 15 13.5587 14.6839 14.1213 14.1213C14.6839 13.5587 15 12.7956 15 12C15 11.2044 14.6839 10.4413 14.1213 9.87868C13.5587 9.31607 12.7956 9 12 9ZM4.5 16H7V18.5C7 19.8926 5.89256 21 4.5 21C3.10744 21 2 19.8926 2 18.5C2 17.1074 3.10744 16 4.5 16Z" fill="white"/>
</svg>
