<svg width="40" height="40" viewBox="0 0 40 40" fill="none" xmlns="http://www.w3.org/2000/svg">
<path d="M7.0372 3.33325C4.9909 3.33325 3.3335 4.99066 3.3335 7.03696V32.9629C3.3335 35.0092 4.9909 36.6666 7.0372 36.6666H32.9631C35.0094 36.6666 36.6668 35.0092 36.6668 32.9629V7.03696C36.6668 4.99066 35.0094 3.33325 32.9631 3.33325H7.0372ZM6.24976 6.24993H33.7498V33.7499H6.24976V6.24993ZM12.184 9.47474C10.597 9.47474 9.64498 10.4288 9.64498 11.6991C9.64498 12.9695 10.5971 13.9199 12.0249 13.9199C13.6119 13.9199 14.564 12.9695 14.564 11.6991C14.564 10.4288 13.6118 9.47474 12.184 9.47474ZM9.77157 16.2962V29.2592H14.4446V16.2962H9.77157ZM18.7498 16.2962V29.2592H22.4998V22.1737C22.4998 20.0644 23.7498 19.7612 24.93 19.7612C25.3818 19.7612 26.5902 20.2144 26.5902 22.1737V29.2592H30.6248L30.4678 22.1737C30.4678 18.1052 29.3748 16.8749 27.0423 16.2962C24.3748 16.2499 23.1016 17.0694 22.4998 18.1249V16.2962H18.7498Z" fill="white"/>
</svg>
